<svg xmlns="http://www.w3.org/2000/svg">
<symbol
  viewBox="0 0 64 64"
  fill="none"
  id="icon-cup"
>
  <defs>
    <linearGradient id="cupGradient" x1="0%" y1="0%" x2="100%" y2="100%">
      <stop offset="0%" stop-color="#FFD54F"/>
      <stop offset="100%" stop-color="#F59E0B"/>
    </linearGradient>
  </defs>

  <path
    d="M16 18H10C8 18 6 20 6 22V24C6 31 12 36 18 36"
    stroke="url(#cupGradient)"
    stroke-width="3"
    stroke-linecap="round"
    stroke-linejoin="round"
  />

  <path
    d="M48 18H54C56 18 58 20 58 22V24C58 31 52 36 46 36"
    stroke="url(#cupGradient)"
    stroke-width="3"
    stroke-linecap="round"
    stroke-linejoin="round"
  />

  <path
    d="M16 14H48V24C48 35 41 44 32 44C23 44 16 35 16 24V14Z"
    fill="url(#cupGradient)"
  />

  <rect
    x="29"
    y="44"
    width="6"
    height="8"
    rx="2"
    fill="url(#cupGradient)"
  />

  <rect
    x="22"
    y="52"
    width="20"
    height="6"
    rx="3"
    fill="url(#cupGradient)"
  />

  <path
    d="M32 20L33.8 24H38L34.6 26.5L36 31L32 28.5L28 31L29.4 26.5L26 24H30.2L32 20Z"
    fill="#FFF8E1"
  />
</symbol>

<symbol id="icon-clock" fill="currentColor" viewBox="0 0 24 24">
 <path d="M12.5 7.25a.75.75 0 00-1.5 0v5.5c0 .27.144.518.378.651l3.5 2a.75.75 0 00.744-1.302L12.5 12.315V7.25z"/>
 <path fill-rule="evenodd" d="M12 1C5.925 1 1 5.925 1 12s4.925 11 11 11 11-4.925 11-11S18.075 1 12 1zM2.5 12a9.5 9.5 0 1119 0 9.5 9.5 0 01-19 0z"/>
 </symbol>

</svg>